<mxfile host="app.diagrams.net" agent="Mozilla/5.0 (Windows NT 10.0; Win64; x64) AppleWebKit/537.36 (KHTML, like Gecko) Chrome/131.0.0.0 Safari/537.36" version="25.0.1">
  <diagram id="prtHgNgQTEPvFCAcTncT" name="Page-1">
    <mxGraphModel dx="1886" dy="794" grid="0" gridSize="10" guides="1" tooltips="1" connect="1" arrows="1" fold="1" page="1" pageScale="1" pageWidth="827" pageHeight="1169" math="0" shadow="0">
      <root>
        <mxCell id="0" />
        <mxCell id="1" parent="0" />
        <mxCell id="dNxyNK7c78bLwvsdeMH5-13" value="" style="endArrow=blockThin;endFill=1;fontSize=11;edgeStyle=elbowEdgeStyle;elbow=vertical;rounded=0;" parent="1" source="dNxyNK7c78bLwvsdeMH5-12" target="dNxyNK7c78bLwvsdeMH5-14" edge="1">
          <mxGeometry relative="1" as="geometry" />
        </mxCell>
        <mxCell id="dNxyNK7c78bLwvsdeMH5-15" value="" style="endArrow=blockThin;endFill=1;fontSize=11;edgeStyle=elbowEdgeStyle;elbow=vertical;rounded=0;" parent="1" source="dNxyNK7c78bLwvsdeMH5-12" target="dNxyNK7c78bLwvsdeMH5-16" edge="1">
          <mxGeometry relative="1" as="geometry" />
        </mxCell>
        <mxCell id="dNxyNK7c78bLwvsdeMH5-17" value="" style="endArrow=blockThin;endFill=1;fontSize=11;edgeStyle=elbowEdgeStyle;elbow=vertical;rounded=0;" parent="1" source="dNxyNK7c78bLwvsdeMH5-12" target="dNxyNK7c78bLwvsdeMH5-18" edge="1">
          <mxGeometry relative="1" as="geometry" />
        </mxCell>
        <mxCell id="d0pJmijx4cC1JQeAYe1_-26" style="edgeStyle=orthogonalEdgeStyle;rounded=0;orthogonalLoop=1;jettySize=auto;html=1;exitX=0.5;exitY=1;exitDx=0;exitDy=0;" parent="1" source="dNxyNK7c78bLwvsdeMH5-12" target="d0pJmijx4cC1JQeAYe1_-8" edge="1">
          <mxGeometry relative="1" as="geometry" />
        </mxCell>
        <UserObject label="根据车流量数据对运行损失排放量&#xa;进行计算和预测" name="Tessa Miller" position="CFO" location="Office 1" email="me@example.com" placeholders="1" link="https://www.draw.io" id="dNxyNK7c78bLwvsdeMH5-12">
          <mxCell style="" parent="1" vertex="1">
            <mxGeometry x="750" y="360" width="269" height="70" as="geometry" />
          </mxCell>
        </UserObject>
        <mxCell id="d0pJmijx4cC1JQeAYe1_-7" style="edgeStyle=orthogonalEdgeStyle;rounded=0;orthogonalLoop=1;jettySize=auto;html=1;" parent="1" source="dNxyNK7c78bLwvsdeMH5-14" target="d0pJmijx4cC1JQeAYe1_-6" edge="1">
          <mxGeometry relative="1" as="geometry">
            <Array as="points">
              <mxPoint x="519" y="645" />
              <mxPoint x="519" y="645" />
            </Array>
          </mxGeometry>
        </mxCell>
        <UserObject label="数据预处理和多模态特征构建" name="Edward Morrison" position="Brand Manager" location="Office 2" email="me@example.com" placeholders="1" link="https://www.draw.io" id="dNxyNK7c78bLwvsdeMH5-14">
          <mxCell style="" parent="1" vertex="1">
            <mxGeometry x="429" y="535" width="180" height="80" as="geometry" />
          </mxCell>
        </UserObject>
        <mxCell id="d0pJmijx4cC1JQeAYe1_-10" style="edgeStyle=orthogonalEdgeStyle;rounded=0;orthogonalLoop=1;jettySize=auto;html=1;entryX=0.5;entryY=0;entryDx=0;entryDy=0;" parent="1" source="d0pJmijx4cC1JQeAYe1_-11" edge="1">
          <mxGeometry relative="1" as="geometry">
            <mxPoint x="762.25" y="675" as="targetPoint" />
            <mxPoint x="763.75" y="615" as="sourcePoint" />
            <Array as="points">
              <mxPoint x="764" y="675" />
            </Array>
          </mxGeometry>
        </mxCell>
        <mxCell id="d0pJmijx4cC1JQeAYe1_-13" value="" style="edgeStyle=orthogonalEdgeStyle;rounded=0;orthogonalLoop=1;jettySize=auto;html=1;" parent="1" source="dNxyNK7c78bLwvsdeMH5-16" target="d0pJmijx4cC1JQeAYe1_-11" edge="1">
          <mxGeometry relative="1" as="geometry" />
        </mxCell>
        <mxCell id="d0pJmijx4cC1JQeAYe1_-14" style="edgeStyle=orthogonalEdgeStyle;rounded=0;orthogonalLoop=1;jettySize=auto;html=1;exitX=0.5;exitY=1;exitDx=0;exitDy=0;" parent="1" source="dNxyNK7c78bLwvsdeMH5-16" edge="1">
          <mxGeometry relative="1" as="geometry">
            <mxPoint x="763.1666666666667" y="615" as="targetPoint" />
          </mxGeometry>
        </mxCell>
        <UserObject label="如何提取时空特征" name="Evan Valet" position="HR Director" location="Office 4" email="me@example.com" placeholders="1" id="dNxyNK7c78bLwvsdeMH5-16">
          <mxCell style="" parent="1" vertex="1">
            <mxGeometry x="673" y="535" width="180" height="80" as="geometry" />
          </mxCell>
        </UserObject>
        <mxCell id="d0pJmijx4cC1JQeAYe1_-18" style="edgeStyle=orthogonalEdgeStyle;rounded=0;orthogonalLoop=1;jettySize=auto;html=1;exitX=0.5;exitY=1;exitDx=0;exitDy=0;" parent="1" source="dNxyNK7c78bLwvsdeMH5-18" target="d0pJmijx4cC1JQeAYe1_-16" edge="1">
          <mxGeometry relative="1" as="geometry" />
        </mxCell>
        <UserObject label="如何提取全局信息与时空特征&#xa;有效融合" name="Alison Donovan" position="System Admin" location="Office 3" email="me@example.com" placeholders="1" id="dNxyNK7c78bLwvsdeMH5-18">
          <mxCell style="" parent="1" vertex="1">
            <mxGeometry x="919" y="535" width="180" height="80" as="geometry" />
          </mxCell>
        </UserObject>
        <mxCell id="d0pJmijx4cC1JQeAYe1_-4" value="&lt;b&gt;关键问题&lt;/b&gt;" style="rounded=1;whiteSpace=wrap;html=1;" parent="1" vertex="1">
          <mxGeometry x="220" y="530" width="150" height="80" as="geometry" />
        </mxCell>
        <UserObject label="聚类或取平均&#xa;填补缺失路段的信息" name="Edward Morrison" position="Brand Manager" location="Office 2" email="me@example.com" placeholders="1" id="d0pJmijx4cC1JQeAYe1_-6">
          <mxCell style="" parent="1" vertex="1">
            <mxGeometry x="414" y="665" width="195" height="80" as="geometry" />
          </mxCell>
        </UserObject>
        <mxCell id="d0pJmijx4cC1JQeAYe1_-22" style="edgeStyle=orthogonalEdgeStyle;rounded=0;orthogonalLoop=1;jettySize=auto;html=1;exitX=0.5;exitY=1;exitDx=0;exitDy=0;" parent="1" source="d0pJmijx4cC1JQeAYe1_-8" target="d0pJmijx4cC1JQeAYe1_-20" edge="1">
          <mxGeometry relative="1" as="geometry" />
        </mxCell>
        <UserObject label="如何验证模型的有效性" name="Alison Donovan" position="System Admin" location="Office 3" email="me@example.com" placeholders="1" id="d0pJmijx4cC1JQeAYe1_-8">
          <mxCell style="" parent="1" vertex="1">
            <mxGeometry x="1149" y="535" width="180" height="80" as="geometry" />
          </mxCell>
        </UserObject>
        <UserObject label="使用LSTM提取不同跨度的时间特性，&#xa;借助GCN的提取空间关系&#xa;通过组合提取联合的时空特性" name="Evan Valet" position="HR Director" location="Office 4" email="me@example.com" placeholders="1" id="d0pJmijx4cC1JQeAYe1_-11">
          <mxCell style="" parent="1" vertex="1">
            <mxGeometry x="635.5" y="665" width="255" height="80" as="geometry" />
          </mxCell>
        </UserObject>
        <UserObject label="用多头注意力机制捕捉&#xa;全局信息和长距离依赖" name="Alison Donovan" position="System Admin" location="Office 3" email="me@example.com" placeholders="1" id="d0pJmijx4cC1JQeAYe1_-16">
          <mxCell style="" parent="1" vertex="1">
            <mxGeometry x="919" y="665" width="180" height="80" as="geometry" />
          </mxCell>
        </UserObject>
        <UserObject label="测试loss大小&#xa;用实际数据进行测试" name="Alison Donovan" position="System Admin" location="Office 3" email="me@example.com" placeholders="1" id="d0pJmijx4cC1JQeAYe1_-20">
          <mxCell style="" parent="1" vertex="1">
            <mxGeometry x="1149" y="665" width="180" height="80" as="geometry" />
          </mxCell>
        </UserObject>
        <mxCell id="d0pJmijx4cC1JQeAYe1_-28" value="&lt;b&gt;研究目标&lt;/b&gt;" style="rounded=1;whiteSpace=wrap;html=1;" parent="1" vertex="1">
          <mxGeometry x="220" y="370" width="150" height="80" as="geometry" />
        </mxCell>
        <mxCell id="d0pJmijx4cC1JQeAYe1_-29" value="&lt;b&gt;研究方法&lt;/b&gt;" style="rounded=1;whiteSpace=wrap;html=1;" parent="1" vertex="1">
          <mxGeometry x="220" y="665" width="150" height="80" as="geometry" />
        </mxCell>
      </root>
    </mxGraphModel>
  </diagram>
</mxfile>
